<svg width="24" height="24" viewBox="0 0 24 24" fill="none" xmlns="http://www.w3.org/2000/svg">
<path d="M7.98647 19.3004C7.86941 19.0847 7.82796 18.836 7.86872 18.5939H2.88572L10.2875 5.56267L13.4067 11.1202L14.3877 10.3882L11.3075 4.85017C11.2044 4.66084 11.0564 4.49976 10.8764 4.38113C10.6965 4.2625 10.4901 4.18997 10.2755 4.16992C10.0594 4.17884 9.85014 4.24861 9.67194 4.37122C9.49374 4.49382 9.3538 4.66427 9.26822 4.86292L1.76822 18.0577C1.65414 18.2426 1.58838 18.4533 1.57698 18.6703C1.56558 18.8874 1.6089 19.1038 1.70297 19.2997C1.81705 19.4814 1.97992 19.6275 2.17301 19.7211C2.3661 19.8147 2.58162 19.8522 2.79497 19.8292H9.07547C8.86253 19.8529 8.64722 19.8162 8.45412 19.7234C8.26103 19.6306 8.09793 19.4853 7.98347 19.3042L7.98647 19.3004Z" fill="#E12179"/>
<path d="M22.2269 18.084L16.1917 7.36726C16.0936 7.17785 15.9493 7.01623 15.7722 6.89733C15.5951 6.77844 15.3909 6.7061 15.1784 6.68701C14.9673 6.69597 14.763 6.76464 14.5894 6.88505C14.4157 7.00547 14.2798 7.17268 14.1974 7.36726L13.3994 8.64226V11.1173L15.1777 8.06401L21.1409 18.6173H18.8722C18.9083 18.8309 18.8763 19.0505 18.7807 19.245L18.7612 19.284C18.6383 19.4582 18.4744 19.5995 18.2839 19.6952C18.0934 19.791 17.8823 19.8383 17.6692 19.833H21.2197C21.4329 19.8389 21.6442 19.7919 21.8348 19.696C22.0254 19.6002 22.1892 19.4587 22.3117 19.284C22.4075 19.0947 22.4497 18.8828 22.4335 18.6712C22.4174 18.4597 22.3436 18.2566 22.2202 18.084H22.2269Z" fill="#E12179"/>
<path d="M18.9248 19.275L18.9443 19.236L18.9968 19.1317C19.0608 18.9644 19.0766 18.7826 19.0425 18.6067C19.009 18.4148 18.9404 18.2307 18.84 18.0637L14.1255 9.88873L13.413 8.64673H13.4003L12.681 9.88273L7.9733 18.0577C7.88155 18.2245 7.81962 18.4059 7.7903 18.594C7.74587 18.8352 7.78502 19.0845 7.9013 19.3005C8.01981 19.4823 8.18647 19.6277 8.38271 19.7204C8.57896 19.813 8.79709 19.8494 9.0128 19.8255H17.7938C18.0134 19.8325 18.2314 19.7855 18.4286 19.6886C18.6258 19.5917 18.7961 19.4478 18.9248 19.2697V19.275ZM13.3995 11.127L17.715 18.6H9.08405L13.3995 11.127Z" fill="#E12179"/>
</svg>
