<svg width="24" height="24" viewBox="0 0 24 24" fill="none" xmlns="http://www.w3.org/2000/svg">
<path d="M18.6531 13.8682C18.6531 12.0877 17.4494 11.6129 14.9166 11.2784C12.3569 10.9402 12.0966 10.7647 12.0966 10.1662C12.0966 9.67118 12.3171 9.01043 14.2131 9.01043C15.9066 9.01043 16.5306 9.37493 16.7879 10.5164C16.8119 10.6237 16.9064 10.7024 17.0196 10.7032H18.0891C18.1581 10.7024 18.2196 10.6732 18.2631 10.6274C18.3029 10.5847 18.3269 10.5277 18.3269 10.4647C18.3269 10.4572 18.3269 10.4504 18.3261 10.4429V10.4437C18.1604 8.47718 16.8539 7.56068 14.2139 7.56068C11.8634 7.56068 10.4609 8.55218 10.4609 10.2157C10.4609 12.0202 11.8551 12.5182 14.1111 12.7417C16.8104 13.0057 17.0196 13.4002 17.0196 13.9312C17.0196 14.8522 16.2801 15.2452 14.5431 15.2452C12.3621 15.2452 11.8821 14.6977 11.7209 13.6124C11.7021 13.4977 11.6039 13.4107 11.4846 13.4107H10.4181C10.4174 13.4107 10.4174 13.4107 10.4166 13.4107C10.2861 13.4107 10.1804 13.5164 10.1804 13.6469V13.6477C10.1804 15.0367 10.9356 16.6919 14.5431 16.6919C17.1561 16.6927 18.6531 15.6652 18.6531 13.8682ZM11.9984 23.2469H11.9976C11.6796 23.2469 11.3819 23.1607 11.1261 23.0107L11.1344 23.0152L8.38262 21.3869C7.97237 21.1574 8.17262 21.0757 8.30762 21.0277C8.78237 20.8777 9.19487 20.6857 9.57587 20.4479L9.55262 20.4614C9.57812 20.4494 9.60887 20.4419 9.64037 20.4419C9.68387 20.4419 9.72362 20.4554 9.75737 20.4779L9.75662 20.4772L11.8709 21.7319C11.9076 21.7522 11.9519 21.7634 11.9984 21.7634C12.0449 21.7634 12.0891 21.7514 12.1274 21.7312L12.1259 21.7319L20.3691 16.9747C20.4449 16.9282 20.4944 16.8464 20.4944 16.7527V7.23893C20.4944 7.14293 20.4434 7.05968 20.3669 7.01243L20.3654 7.01168L12.1259 2.25818C12.0891 2.23718 12.0456 2.22518 11.9991 2.22518C11.9526 2.22518 11.9084 2.23718 11.8709 2.25893L11.8724 2.25818L3.63512 7.01318C3.55712 7.05968 3.50612 7.14368 3.50462 7.23893V16.7519C3.50462 16.8464 3.55712 16.9282 3.63362 16.9717L3.63512 16.9724L5.89262 18.2767C7.11737 18.8894 7.86812 18.1679 7.86812 17.4427V8.05043C7.86812 7.91993 7.97387 7.81343 8.10512 7.81343C8.10587 7.81343 8.10737 7.81343 8.10812 7.81343H9.15287C9.28412 7.81343 9.39137 7.91918 9.39212 8.05043V17.4427C9.40412 17.5312 9.41162 17.6339 9.41162 17.7382C9.41162 18.9997 8.38937 20.0219 7.12787 20.0219C7.06637 20.0219 7.00487 20.0197 6.94412 20.0144L6.95237 20.0152C6.93437 20.0152 6.91262 20.0159 6.89087 20.0159C6.21137 20.0159 5.57612 19.8239 5.03837 19.4902L5.05337 19.4992L2.89037 18.2557C2.36987 17.9489 2.02637 17.3909 2.02637 16.7527V7.23968C2.02637 6.60143 2.36987 6.04418 2.88212 5.74193L2.89037 5.73743L11.1336 0.97418C11.3834 0.83468 11.6819 0.75293 11.9999 0.75293C12.3179 0.75293 12.6156 0.83468 12.8751 0.97868L12.8661 0.97418L21.1079 5.73743C21.6291 6.04418 21.9734 6.60143 21.9741 7.23968V16.7527C21.9726 17.3909 21.6291 17.9489 21.1161 18.2512L21.1079 18.2557L12.8661 23.0152C12.6186 23.1607 12.3216 23.2469 12.0044 23.2469C12.0029 23.2469 11.9999 23.2469 11.9984 23.2469Z" fill="#E12179"/>
</svg>
