<svg width="24" height="24" viewBox="0 0 24 24" fill="none" xmlns="http://www.w3.org/2000/svg">
<g clip-path="url(#clip0_1619_792)">
<path d="M14.0504 2.75027L18.9839 5.60177C19.8007 4.74227 21.1597 4.70702 22.0192 5.52377C22.1639 5.66477 22.2929 5.82452 22.3942 6.00002C22.9837 7.02752 22.6289 8.34002 21.5969 8.92952C21.4252 9.02702 21.2377 9.10502 21.0382 9.15227V14.8515C22.1864 15.1253 22.8937 16.2735 22.6199 17.4218C22.5727 17.625 22.4909 17.82 22.3897 18C21.7957 19.0238 20.4877 19.3748 19.4602 18.7815C19.2652 18.672 19.0852 18.5235 18.9367 18.3555L14.0302 21.1875C14.4014 22.3088 13.7917 23.5193 12.6704 23.8905C12.4514 23.9648 12.2249 24 11.9984 24C10.8187 24 9.85791 23.0468 9.85791 21.8633C9.85791 21.66 9.88941 21.453 9.94791 21.2535L5.01066 18.4058C4.19391 19.2615 2.83866 19.2968 1.98366 18.4763C1.13241 17.6595 1.10091 16.308 1.91316 15.453C2.19816 15.156 2.56191 14.9453 2.96016 14.8478V9.14852C1.81191 8.87477 1.10091 7.71902 1.37841 6.56627C1.42566 6.36677 1.50366 6.17552 1.60491 6.00002C2.19441 4.97627 3.50691 4.62527 4.53066 5.21852C4.70616 5.31977 4.87041 5.44502 5.01141 5.59352L9.94866 2.74577C9.61266 1.61327 10.2614 0.421518 11.3902 0.0892676C11.5852 0.0270176 11.7922 -0.000732422 11.9999 -0.000732422C13.1797 -0.000732422 14.1404 0.952518 14.1404 2.13227C14.1404 2.34302 14.1089 2.55002 14.0504 2.74952V2.75027ZM13.5352 3.62927C13.5157 3.64877 13.4999 3.66827 13.4767 3.68777L19.9379 14.8755C19.9649 14.868 19.9964 14.8598 20.0197 14.8523V9.14552C18.8752 8.86427 18.1799 7.70402 18.4649 6.55952C18.4687 6.53627 18.4769 6.50852 18.4807 6.48527L13.5352 3.62927ZM10.5194 3.68777L10.4609 3.62927L5.51541 6.48077C5.84391 7.61327 5.18691 8.79752 4.05441 9.12527C4.02741 9.13277 4.00341 9.13727 3.97641 9.14477V14.8515L4.06266 14.8748L10.5239 3.68702L10.5194 3.68777ZM12.5977 4.19552C12.2069 4.30502 11.7929 4.30502 11.4059 4.19552L4.94466 15.3833C5.23791 15.6645 5.44491 16.0275 5.54616 16.4265H18.4567C18.5542 16.0283 18.7612 15.6645 19.0582 15.3795L12.5977 4.19552ZM13.5817 20.4218L18.4957 17.5823C18.4799 17.535 18.4687 17.4885 18.4567 17.4413H5.54241L5.51916 17.523L10.4609 20.3745C10.8479 19.9725 11.3947 19.722 11.9999 19.722C12.6292 19.722 13.1917 19.992 13.5817 20.4218Z" fill="#E12179"/>
</g>
<defs>
<clipPath id="clip0_1619_792">
<rect width="24" height="24" fill="white"/>
</clipPath>
</defs>
</svg>
