<svg width="24" height="24" viewBox="0 0 24 24" fill="none" xmlns="http://www.w3.org/2000/svg">
<g clip-path="url(#clip0_1619_788)">
<path d="M11.7509 21.997C6.52993 21.869 2.30093 17.74 2.01493 12.559L2.00293 12.246L11.7509 21.997ZM11.9999 2C13.608 1.99884 15.1927 2.38599 16.6191 3.12853C18.0455 3.87107 19.2715 4.94705 20.1929 6.265L18.5549 7.413C17.7228 6.22462 16.5832 5.28479 15.2581 4.69405C13.9331 4.10331 12.4724 3.88387 11.0322 4.0592C9.59206 4.23453 8.22666 4.79804 7.08204 5.68946C5.93743 6.58087 5.05666 7.76666 4.53393 9.12L14.8799 19.466C16.0669 19.0067 17.1275 18.2714 17.974 17.3209C18.8205 16.3704 19.4286 15.2321 19.7479 14H15.4999V12H21.9999C21.9999 16.726 18.7209 20.686 14.3149 21.73L2.26893 9.686C3.31393 5.28 7.27393 2 11.9999 2Z" fill="#E12179"/>
</g>
<defs>
<clipPath id="clip0_1619_788">
<rect width="24" height="24" fill="white"/>
</clipPath>
</defs>
</svg>
