<svg width="24" height="24" viewBox="0 0 24 24" fill="none" xmlns="http://www.w3.org/2000/svg">
<path d="M5.26493 13.38C5.86093 13.38 6.30593 13.268 6.58793 13.048C6.86693 12.83 7.05893 12.453 7.15993 11.926C7.25393 11.434 7.21793 11.09 7.05393 10.905C6.88593 10.716 6.52193 10.619 5.97193 10.619H5.01793L4.48993 13.38H5.26493ZM2.14793 16.781C2.12602 16.7809 2.1044 16.776 2.08466 16.7665C2.06493 16.7569 2.04759 16.7431 2.03393 16.726C2.01987 16.7087 2.0098 16.6886 2.00444 16.6669C1.99908 16.6453 1.99857 16.6228 2.00293 16.601L3.40293 9.28497C3.40941 9.25089 3.4275 9.22011 3.45412 9.19786C3.48074 9.17562 3.51424 9.16329 3.54893 9.16297H6.56593C7.51393 9.16297 8.21993 9.42497 8.66393 9.93997C9.10993 10.459 9.24793 11.183 9.07293 12.095C9.00676 12.4536 8.88425 12.7996 8.70993 13.12C8.53993 13.429 8.31493 13.715 8.04193 13.97C7.72983 14.2718 7.35441 14.5004 6.94293 14.639C6.54793 14.77 6.03993 14.836 5.43293 14.836H4.21193L3.86293 16.66C3.85649 16.6939 3.83855 16.7245 3.81214 16.7468C3.78572 16.769 3.75245 16.7814 3.71793 16.782L2.14793 16.781ZM12.7929 14.836C12.7712 14.8359 12.7497 14.831 12.7301 14.8214C12.7105 14.8119 12.6934 14.7981 12.6799 14.781C12.6662 14.7637 12.6563 14.7437 12.651 14.7223C12.6456 14.7009 12.6449 14.6787 12.6489 14.657L13.2599 11.42C13.3179 11.112 13.3039 10.891 13.2199 10.798C13.1689 10.741 13.0139 10.645 12.5559 10.645H11.4479L10.6789 14.715C10.6729 14.7489 10.6552 14.7796 10.6289 14.8019C10.6026 14.8242 10.5694 14.8366 10.5349 14.837H8.99993C8.97817 14.8369 8.95669 14.832 8.93712 14.8224C8.91754 14.8129 8.90039 14.7991 8.88693 14.782C8.87319 14.7647 8.86331 14.7447 8.85796 14.7233C8.85261 14.7019 8.85192 14.6797 8.85593 14.658L10.2379 7.34197C10.244 7.30805 10.2617 7.27731 10.288 7.25504C10.3143 7.23277 10.3475 7.22037 10.3819 7.21997H11.9189C11.9629 7.21997 12.0039 7.23997 12.0319 7.27497C12.0599 7.30997 12.0709 7.35497 12.0629 7.39997L11.7299 9.16597H12.9219C13.8299 9.16597 14.4449 9.33097 14.8039 9.66897C15.1689 10.015 15.2829 10.567 15.1429 11.311L14.4999 14.716C14.4939 14.7499 14.4762 14.7806 14.4499 14.8029C14.4236 14.8252 14.3904 14.8376 14.3559 14.838H12.7929V14.836ZM17.9699 13.38C18.5889 13.38 19.0509 13.268 19.3439 13.048C19.6329 12.83 19.8329 12.453 19.9379 11.926C20.0359 11.434 19.9979 11.09 19.8269 10.905C19.6519 10.716 19.2739 10.619 18.7029 10.619H17.7139L17.1649 13.38H17.9699ZM14.7339 16.781C14.7113 16.781 14.6889 16.7761 14.6684 16.7666C14.6478 16.7571 14.6296 16.7432 14.6149 16.726C14.6006 16.7089 14.5902 16.6888 14.5847 16.6671C14.5792 16.6455 14.5786 16.6229 14.5829 16.601L16.0369 9.28497C16.0441 9.25031 16.0631 9.2192 16.0906 9.19696C16.1181 9.17471 16.1525 9.1627 16.1879 9.16297H19.3209C20.3059 9.16297 21.0389 9.42497 21.4989 9.93997C21.9619 10.459 22.1049 11.183 21.9239 12.095C21.8499 12.466 21.7239 12.811 21.5469 13.119C21.3709 13.428 21.1369 13.714 20.8539 13.969C20.5139 14.28 20.1299 14.505 19.7129 14.638C19.3019 14.769 18.7749 14.835 18.1449 14.835H16.8759L16.5139 16.658C16.5068 16.6926 16.4878 16.7237 16.4603 16.746C16.4327 16.7682 16.3983 16.7802 16.3629 16.78L14.7339 16.781Z" fill="#E12179"/>
</svg>
