<svg width="24" height="24" viewBox="0 0 24 24" fill="none" xmlns="http://www.w3.org/2000/svg">
<path d="M10.7349 16.6582C11.1474 16.6769 11.5689 16.6904 11.9957 16.6904C12.4269 16.6904 12.8529 16.6814 13.2707 16.6582C12.8529 17.1982 12.4404 17.6759 12.0039 18.1312L12.0099 18.1252C11.5757 17.6752 11.1587 17.1967 10.7657 16.6987L10.7349 16.6582ZM6.46141 16.0582C7.27366 16.2644 8.26441 16.4399 9.2754 16.5479L9.37366 16.5562C9.99241 17.4059 10.6179 18.1537 11.2892 18.8572L11.2809 18.8482C10.2977 19.9454 8.97091 20.7164 7.47016 20.9932L7.42891 20.9992C7.42591 20.9992 7.42291 20.9992 7.41991 20.9992C7.23391 20.9992 7.05841 20.9534 6.90466 20.8724L6.91066 20.8754C6.28666 20.5192 6.01591 19.1564 6.22666 17.4052C6.27691 16.9739 6.35941 16.5202 6.46066 16.0574L6.46141 16.0582ZM17.5487 16.0484C17.6372 16.4039 17.7204 16.8569 17.7797 17.3174L17.7864 17.3819C18.0017 19.1324 17.7362 20.4937 17.1174 20.8574C16.9794 20.9339 16.8144 20.9789 16.6389 20.9789C16.6217 20.9789 16.6044 20.9782 16.5872 20.9774H16.5894C15.0497 20.6962 13.7237 19.9304 12.7427 18.8467L12.7374 18.8407C13.3967 18.1484 14.0177 17.4022 14.5869 16.6169L14.6304 16.5539C15.7374 16.4384 16.7297 16.2599 17.6964 16.0162L17.5487 16.0477V16.0484ZM7.33816 13.2494C7.52566 13.6169 7.72216 13.9829 7.93816 14.3504C8.15366 14.7159 8.37391 15.0729 8.59891 15.4214C7.94791 15.3262 7.31941 15.2062 6.71866 15.0599C6.88741 14.4697 7.09891 13.8584 7.33741 13.2479L7.33816 13.2494ZM16.6592 13.2307C16.9074 13.8464 17.1182 14.4607 17.2929 15.0562C16.6929 15.2032 16.0592 15.3277 15.4037 15.4214C15.6287 15.0697 15.8537 14.7074 16.0644 14.3362C16.2752 13.9709 16.4724 13.5974 16.6607 13.2299L16.6592 13.2307ZM5.71441 9.21891C6.04141 10.3274 6.39241 11.2544 6.80116 12.1484L6.74491 12.0119C6.39541 12.7657 6.04966 13.6874 5.76616 14.6362L5.72716 14.7899C5.19766 14.6272 4.77166 14.4674 4.35691 14.2882L4.44316 14.3212C2.82016 13.6304 1.77016 12.7222 1.77016 12.0022C1.77016 11.2822 2.82016 10.3694 4.44316 9.68166C4.83691 9.51291 5.26891 9.36066 5.71441 9.21891ZM18.2687 9.21516C18.7224 9.35541 19.1537 9.51216 19.5572 9.68166C21.1802 10.3754 22.2302 11.2822 22.2302 12.0022C22.2257 12.7222 21.1757 13.6327 19.5527 14.3219C19.1589 14.4907 18.7277 14.6422 18.2829 14.7839C17.9529 13.6717 17.6019 12.7454 17.1947 11.8499L17.2517 11.9909C17.5997 11.2379 17.9462 10.3162 18.2289 9.36741L18.2687 9.21291V9.21516ZM15.3977 8.58291C16.0494 8.67966 16.6772 8.79816 17.2779 8.94591C17.1092 9.53841 16.8984 10.1474 16.6592 10.7579C16.4717 10.3927 16.2752 10.0244 16.0592 9.65766C15.8484 9.29016 15.6234 8.93241 15.3984 8.58366L15.3977 8.58291ZM8.59366 8.58291C8.36866 8.93616 8.14366 9.29766 7.93366 9.67041C7.72291 10.0357 7.52566 10.4032 7.33816 10.7707C7.08991 10.1557 6.87916 9.54291 6.70441 8.94591C7.30441 8.80566 7.93666 8.68041 8.59291 8.58441L8.59366 8.58291ZM12.0002 8.34441C12.6939 8.34441 13.3847 8.37591 14.0642 8.43141C14.4447 8.97691 14.8142 9.55791 15.1727 10.1744C15.5212 10.7744 15.8392 11.3824 16.1267 11.9984C15.8379 12.6127 15.5214 13.2262 15.1772 13.8262C14.8209 14.4449 14.4527 15.0337 14.0709 15.5789C13.3884 15.6382 12.6969 15.6704 11.9994 15.6704C11.3057 15.6704 10.6149 15.6374 9.9354 15.5834C9.55515 15.0382 9.18391 14.4547 8.82691 13.8404C8.47841 13.2404 8.16041 12.6324 7.87291 12.0164C8.15716 11.4007 8.47816 10.7857 8.8224 10.1849C9.17865 9.56616 9.54691 8.97966 9.92866 8.43441C10.6112 8.37441 11.3027 8.34291 12.0002 8.34291V8.34441ZM11.9859 5.88366C12.4209 6.33366 12.8379 6.81141 13.2302 7.30941L13.2602 7.34916C12.8477 7.33041 12.4262 7.31766 11.9994 7.31766C11.5682 7.31766 11.1422 7.32666 10.7244 7.34916C11.1414 6.80916 11.5539 6.33141 11.9912 5.87616L11.9852 5.88216L11.9859 5.88366ZM7.41016 3.02466C8.94991 3.30666 10.2752 4.07241 11.2569 5.15541L11.2622 5.16141C10.6029 5.85441 9.98191 6.60066 9.41266 7.38741L9.36915 7.45041C8.26291 7.56516 7.27066 7.74216 6.30466 7.98591L6.45166 7.95441C6.34666 7.49541 6.26866 7.05066 6.21391 6.62391C5.99866 4.87341 6.26416 3.51216 6.88291 3.14991C7.03741 3.07716 7.21816 3.03216 7.40866 3.02616H7.41091L7.41016 3.02466ZM16.5677 3.00591V3.01191C16.5774 3.01191 16.5887 3.01116 16.6007 3.01116C16.7799 3.01116 16.9487 3.05541 17.0972 3.13341L17.0912 3.13041C17.7152 3.48816 17.9859 4.85016 17.7752 6.60216C17.7249 7.03341 17.6424 7.48791 17.5412 7.95141C16.7274 7.74291 15.7367 7.56666 14.7257 7.45941L14.6297 7.45116C14.0102 6.60066 13.3847 5.85291 12.7134 5.14866L12.7224 5.15766C13.7057 4.06266 15.0302 3.29166 16.5279 3.01341L16.5699 3.00666L16.5677 3.00591ZM16.5722 1.98441C14.7407 2.26266 13.1552 3.15216 11.9972 4.43541L11.9912 4.44216C10.8249 3.15966 9.23941 2.27616 7.45291 2.00841L7.41091 2.00316C7.40116 2.00316 7.38916 2.00316 7.37716 2.00316C7.00891 2.00316 6.66316 2.09991 6.36391 2.26941L6.37441 2.26416C5.08591 3.00741 4.79716 5.32341 5.46241 8.22966C2.60941 9.11091 0.753906 10.5194 0.753906 12.0037C0.753906 13.4939 2.61916 14.9062 5.48041 15.7807C4.82041 18.6982 5.11516 21.0179 6.40666 21.7604C6.69016 21.9232 7.03066 22.0184 7.39291 22.0184C7.40941 22.0184 7.42591 22.0184 7.44166 22.0177H7.43941C9.27091 21.7394 10.8564 20.8492 12.0144 19.5652L12.0204 19.5584C13.1867 20.8417 14.7722 21.7252 16.5587 21.9929L16.6007 21.9982C16.6119 21.9982 16.6262 21.9982 16.6397 21.9982C17.0057 21.9982 17.3499 21.9022 17.6477 21.7349L17.6372 21.7402C18.9249 20.9977 19.2144 18.6817 18.5492 15.7747C21.3917 14.9009 23.2472 13.4894 23.2472 12.0029C23.2472 10.5127 21.3819 9.10041 18.5207 8.22366C19.1807 5.30916 18.8859 2.98716 17.5944 2.24391C17.3079 2.07966 16.9644 1.98291 16.5984 1.98291C16.5887 1.98291 16.5789 1.98291 16.5692 1.98291H16.5707L16.5722 1.98441ZM14.0904 12.0037C14.0904 13.1609 13.1522 14.0992 11.9949 14.0992C10.8377 14.0992 9.89941 13.1609 9.89941 12.0037C9.89941 10.8464 10.8377 9.90816 11.9949 9.90816C12.5739 9.90816 13.0974 10.1429 13.4769 10.5217C13.8564 10.9012 14.0904 11.4247 14.0904 12.0037Z" fill="#E12179"/>
</svg>
