<svg width="24" height="24" viewBox="0 0 24 24" fill="none" xmlns="http://www.w3.org/2000/svg">
<g clip-path="url(#clip0_1619_810)">
<path d="M23.6229 5.41996C23.6315 5.4519 23.636 5.48484 23.636 5.51792V10.6605C23.636 10.7948 23.5641 10.9189 23.4476 10.9858L19.1314 13.4708V18.3963C19.1314 18.5304 19.0601 18.6541 18.9439 18.7216L9.93409 23.9082C9.91347 23.9199 9.89097 23.9274 9.86848 23.9354C9.86004 23.9382 9.85207 23.9434 9.84317 23.9457C9.78018 23.9623 9.71398 23.9623 9.651 23.9457C9.64069 23.9429 9.63132 23.9373 9.62147 23.9335C9.60085 23.926 9.57929 23.9195 9.5596 23.9082L0.551698 18.7216C0.435224 18.6547 0.363281 18.5307 0.363281 18.3963V2.96867C0.363281 2.93493 0.367968 2.90212 0.376405 2.87025C0.379217 2.85947 0.385779 2.84962 0.389528 2.83884C0.396559 2.81916 0.403121 2.799 0.413432 2.78072C0.420462 2.76854 0.430774 2.7587 0.43921 2.74745C0.44999 2.73245 0.459833 2.71698 0.472488 2.70386C0.483268 2.69308 0.497329 2.68511 0.509515 2.67574C0.523107 2.66449 0.535293 2.6523 0.55076 2.6434H0.551229L5.05542 0.0500903C5.17148 -0.0166968 5.31431 -0.0166968 5.43037 0.0500903L9.93456 2.6434H9.9355C9.9505 2.65277 9.96315 2.66449 9.97675 2.67527C9.98893 2.68464 10.0025 2.69308 10.0133 2.70339C10.0264 2.71698 10.0358 2.73245 10.047 2.74745C10.055 2.7587 10.0658 2.76854 10.0724 2.78072C10.0831 2.79947 10.0892 2.81916 10.0967 2.83884C10.1005 2.84962 10.107 2.85947 10.1099 2.87071C10.1185 2.90265 10.1229 2.93559 10.123 2.96867V12.6046L13.8763 10.4435V5.51745C13.8763 5.48464 13.881 5.45137 13.8894 5.41996C13.8927 5.40871 13.8988 5.39887 13.9026 5.38809C13.9101 5.36841 13.9166 5.34825 13.9269 5.32997C13.934 5.31779 13.9443 5.30794 13.9522 5.2967C13.9635 5.2817 13.9729 5.26623 13.986 5.25311C13.9968 5.24233 14.0104 5.23436 14.0225 5.22498C14.0366 5.21374 14.0488 5.20155 14.0638 5.19264H14.0643L18.5689 2.59934C18.685 2.53246 18.8278 2.53246 18.9439 2.59934L23.4481 5.19264C23.464 5.20202 23.4762 5.21374 23.4902 5.22452C23.502 5.23389 23.5156 5.24233 23.5263 5.25264C23.5395 5.26623 23.5488 5.2817 23.5601 5.2967C23.5685 5.30794 23.5788 5.31779 23.5854 5.32997C23.5962 5.34825 23.6023 5.36841 23.6098 5.38809C23.614 5.39887 23.6201 5.40871 23.6229 5.41996ZM22.8852 10.4435V6.16707L21.3089 7.07447L19.1314 8.32823V12.6046L22.8856 10.4435H22.8852ZM18.381 18.1793V13.9001L16.239 15.1234L10.1225 18.6143V22.9338L18.381 18.1793ZM1.11414 3.61782V18.1793L9.37166 22.9333V18.6147L5.05776 16.1733L5.05635 16.1724L5.05448 16.1714C5.03995 16.163 5.02776 16.1508 5.01417 16.1405C5.00245 16.1311 4.98886 16.1236 4.97855 16.1133L4.97761 16.1119C4.96543 16.1002 4.95699 16.0857 4.94668 16.0725C4.9373 16.0599 4.92606 16.0491 4.91856 16.036L4.91809 16.0346C4.90965 16.0205 4.9045 16.0036 4.8984 15.9877C4.89231 15.9736 4.88434 15.9605 4.88059 15.9455V15.945C4.87591 15.9272 4.87497 15.9085 4.87309 15.8902C4.87122 15.8761 4.86747 15.8621 4.86747 15.848V15.8471V5.77899L2.69037 4.52475L1.11414 3.61829V3.61782ZM5.24336 0.808444L1.4905 2.96867L5.24243 5.1289L8.99482 2.9682L5.24243 0.808444H5.24336ZM7.19502 14.2901L9.37212 13.0368V3.61782L7.79589 4.52522L5.61832 5.77899V15.1979L7.19502 14.2901ZM18.7564 3.35769L15.004 5.51792L18.7564 7.67815L22.5083 5.51745L18.7564 3.35769ZM18.381 8.32823L16.2034 7.07447L14.6272 6.16707V10.4435L16.8043 11.6968L18.381 12.6046V8.32823ZM9.74661 17.9651L15.2505 14.823L18.0018 13.2528L14.2522 11.094L9.93503 13.5795L6.00031 15.8447L9.74661 17.9651Z" fill="#E12179"/>
</g>
<defs>
<clipPath id="clip0_1619_810">
<rect width="24" height="24" fill="white"/>
</clipPath>
</defs>
</svg>
