<svg width="80" height="80" viewBox="0 0 80 80" fill="none" xmlns="http://www.w3.org/2000/svg">
<path opacity="0.1" d="M11 3H53C64.0457 3 73 11.9543 73 23V56C73 67.0457 64.0457 76 53 76H31C19.9543 76 11 67.0457 11 56V3Z" fill="#E12179"/>
<path d="M73.3332 30H6.6665M6.6665 26L6.6665 54C6.6665 59.6005 6.6665 62.4008 7.75644 64.5399C8.71517 66.4215 10.245 67.9513 12.1266 68.9101C14.2657 70 17.066 70 22.6665 70H57.3332C62.9337 70 65.734 70 67.8731 68.9101C69.7547 67.9513 71.2845 66.4215 72.2432 64.5399C73.3332 62.4008 73.3332 59.6005 73.3332 54V26C73.3332 20.3995 73.3332 17.5992 72.2432 15.4601C71.2845 13.5785 69.7547 12.0487 67.8731 11.0899C65.734 10 62.9337 10 57.3332 10L22.6665 10C17.066 10 14.2657 10 12.1266 11.0899C10.245 12.0487 8.71517 13.5785 7.75644 15.4601C6.6665 17.5992 6.6665 20.3995 6.6665 26Z" stroke="#E12179" stroke-width="2" stroke-linecap="round" stroke-linejoin="round"/>
</svg>
