<svg width="80" height="80" viewBox="0 0 80 80" fill="none" xmlns="http://www.w3.org/2000/svg">
<path opacity="0.1" d="M11 3H53C64.0457 3 73 11.9543 73 23V56C73 67.0457 64.0457 76 53 76H31C19.9543 76 11 67.0457 11 56V3Z" fill="#E12179"/>
<path d="M50 70V52C50 50.1332 50 49.1997 49.6367 48.4867C49.3171 47.8595 48.8072 47.3496 48.18 47.03C47.4669 46.6667 46.5335 46.6667 44.6667 46.6667H35.3333C33.4665 46.6667 32.5331 46.6667 31.82 47.03C31.1928 47.3496 30.6829 47.8595 30.3633 48.4867C30 49.1997 30 50.1332 30 52V70M10 23.3333C10 28.8562 14.4772 33.3333 20 33.3333C25.5228 33.3333 30 28.8562 30 23.3333C30 28.8562 34.4772 33.3333 40 33.3333C45.5228 33.3333 50 28.8562 50 23.3333C50 28.8562 54.4772 33.3333 60 33.3333C65.5228 33.3333 70 28.8562 70 23.3333M20.6667 70H59.3333C63.067 70 64.9339 70 66.3599 69.2734C67.6143 68.6342 68.6342 67.6144 69.2734 66.3599C70 64.9339 70 63.067 70 59.3333V20.6667C70 16.933 70 15.0661 69.2734 13.6401C68.6342 12.3856 67.6143 11.3658 66.3599 10.7266C64.9339 10 63.067 10 59.3333 10H20.6667C16.933 10 15.0661 10 13.6401 10.7266C12.3856 11.3658 11.3658 12.3856 10.7266 13.6401C10 15.0661 10 16.933 10 20.6667V59.3333C10 63.067 10 64.9339 10.7266 66.3599C11.3658 67.6144 12.3856 68.6342 13.6401 69.2734C15.0661 70 16.933 70 20.6667 70Z" stroke="#E12179" stroke-width="2" stroke-linecap="round" stroke-linejoin="round"/>
</svg>
