<svg width="80" height="80" viewBox="0 0 80 80" fill="none" xmlns="http://www.w3.org/2000/svg">
<path opacity="0.1" d="M11 3H53C64.0457 3 73 11.9543 73 23V56C73 67.0457 64.0457 76 53 76H31C19.9543 76 11 67.0457 11 56V3Z" fill="#E12179"/>
<path d="M18.3327 66.6663H26.666M26.666 19.9997H17.3327C13.599 19.9997 11.7322 19.9997 10.3061 20.7263C9.05167 21.3655 8.03179 22.3853 7.39264 23.6397C6.66602 25.0658 6.66602 26.9327 6.66602 30.6663V42.6663C6.66602 46.4 6.66602 48.2669 7.39264 49.6929C8.03179 50.9474 9.05167 51.9672 10.3061 52.6064C11.7322 53.333 13.599 53.333 17.3327 53.333H26.666M56.666 55.9997V56.6663M50.666 66.6663H62.666C66.3997 66.6663 68.2665 66.6663 69.6926 65.9397C70.947 65.3006 71.9669 64.2807 72.6061 63.0263C73.3327 61.6002 73.3327 59.7334 73.3327 55.9997V23.9997C73.3327 20.266 73.3327 18.3991 72.6061 16.9731C71.9669 15.7187 70.947 14.6988 69.6926 14.0596C68.2665 13.333 66.3997 13.333 62.666 13.333H50.666C46.9323 13.333 45.0655 13.333 43.6394 14.0596C42.385 14.6988 41.3651 15.7187 40.726 16.9731C39.9993 18.3991 39.9993 20.266 39.9993 23.9997V55.9997C39.9993 59.7334 39.9993 61.6002 40.726 63.0263C41.3651 64.2807 42.385 65.3006 43.6394 65.9397C45.0655 66.6663 46.9323 66.6663 50.666 66.6663Z" stroke="#E12179" stroke-width="2" stroke-linecap="round" stroke-linejoin="round"/>
</svg>
