<svg width="80" height="80" viewBox="0 0 80 80" fill="none" xmlns="http://www.w3.org/2000/svg">
<path opacity="0.1" d="M11 3H53C64.0457 3 73 11.9543 73 23V56C73 67.0457 64.0457 76 53 76H31C19.9543 76 11 67.0457 11 56V3Z" fill="#E12179"/>
<path d="M24.9993 36.6667H15.3327C13.4658 36.6667 12.5324 36.6667 11.8194 37.03C11.1922 37.3496 10.6822 37.8595 10.3627 38.4867C9.99935 39.1997 9.99935 40.1332 9.99935 42V70M54.9993 36.6667H64.666C66.5329 36.6667 67.4663 36.6667 68.1793 37.03C68.8065 37.3496 69.3165 37.8595 69.636 38.4867C69.9993 39.1997 69.9993 40.1332 69.9993 42V70M54.9993 70V20.6667C54.9993 16.933 54.9993 15.0661 54.2727 13.6401C53.6336 12.3856 52.6137 11.3658 51.3593 10.7266C49.9332 10 48.0664 10 44.3327 10H35.666C31.9323 10 30.0655 10 28.6394 10.7266C27.385 11.3658 26.3651 12.3856 25.726 13.6401C24.9993 15.0661 24.9993 16.933 24.9993 20.6667V70M73.3327 70H6.66602M36.666 23.3333H43.3327M36.666 36.6667H43.3327M36.666 50H43.3327" stroke="#E12179" stroke-width="2" stroke-linecap="round" stroke-linejoin="round"/>
</svg>
