<svg width="48" height="48" viewBox="0 0 48 48" fill="none" xmlns="http://www.w3.org/2000/svg">
<rect opacity="0.1" width="48" height="48" rx="10" fill="#FFD166"/>
<path d="M16 30V29.8C16 28.1198 16 27.2798 16.327 26.638C16.6146 26.0735 17.0735 25.6146 17.638 25.327C18.2798 25 19.1198 25 20.8 25H27.2C28.8802 25 29.7202 25 30.362 25.327C30.9265 25.6146 31.3854 26.0735 31.673 26.638C32 27.2798 32 28.1198 32 29.8V30M16 30C14.8954 30 14 30.8954 14 32C14 33.1046 14.8954 34 16 34C17.1046 34 18 33.1046 18 32C18 30.8954 17.1046 30 16 30ZM32 30C30.8954 30 30 30.8954 30 32C30 33.1046 30.8954 34 32 34C33.1046 34 34 33.1046 34 32C34 30.8954 33.1046 30 32 30ZM24 30C22.8954 30 22 30.8954 22 32C22 33.1046 22.8954 34 24 34C25.1046 34 26 33.1046 26 32C26 30.8954 25.1046 30 24 30ZM24 30V20M18 20H30C30.9319 20 31.3978 20 31.7654 19.8478C32.2554 19.6448 32.6448 19.2554 32.8478 18.7654C33 18.3978 33 17.9319 33 17C33 16.0681 33 15.6022 32.8478 15.2346C32.6448 14.7446 32.2554 14.3552 31.7654 14.1522C31.3978 14 30.9319 14 30 14H18C17.0681 14 16.6022 14 16.2346 14.1522C15.7446 14.3552 15.3552 14.7446 15.1522 15.2346C15 15.6022 15 16.0681 15 17C15 17.9319 15 18.3978 15.1522 18.7654C15.3552 19.2554 15.7446 19.6448 16.2346 19.8478C16.6022 20 17.0681 20 18 20Z" stroke="#FFD166" stroke-width="1.5" stroke-linecap="round" stroke-linejoin="round"/>
</svg>
