<svg width="48" height="48" viewBox="0 0 48 48" fill="none" xmlns="http://www.w3.org/2000/svg">
<rect opacity="0.1" width="48" height="48" rx="10" fill="#5CC97B"/>
<path d="M21.5 20.9653C21.5 20.488 21.5 20.2494 21.5997 20.1162C21.6867 20.0001 21.8197 19.9274 21.9644 19.9171C22.1304 19.9052 22.3311 20.0343 22.7326 20.2924L27.4532 23.3271C27.8016 23.551 27.9758 23.663 28.0359 23.8054C28.0885 23.9298 28.0885 24.0702 28.0359 24.1946C27.9758 24.337 27.8016 24.449 27.4532 24.6729L22.7326 27.7076C22.3311 27.9657 22.1304 28.0948 21.9644 28.0829C21.8197 28.0726 21.6867 27.9999 21.5997 27.8838C21.5 27.7506 21.5 27.512 21.5 27.0347V20.9653Z" stroke="#5CC97B" stroke-width="1.5" stroke-linecap="round" stroke-linejoin="round"/>
<path d="M15 19.8C15 18.1198 15 17.2798 15.327 16.638C15.6146 16.0735 16.0735 15.6146 16.638 15.327C17.2798 15 18.1198 15 19.8 15H28.2C29.8802 15 30.7202 15 31.362 15.327C31.9265 15.6146 32.3854 16.0735 32.673 16.638C33 17.2798 33 18.1198 33 19.8V28.2C33 29.8802 33 30.7202 32.673 31.362C32.3854 31.9265 31.9265 32.3854 31.362 32.673C30.7202 33 29.8802 33 28.2 33H19.8C18.1198 33 17.2798 33 16.638 32.673C16.0735 32.3854 15.6146 31.9265 15.327 31.362C15 30.7202 15 29.8802 15 28.2V19.8Z" stroke="#5CC97B" stroke-width="1.5" stroke-linecap="round" stroke-linejoin="round"/>
</svg>
