<svg width="48" height="48" viewBox="0 0 48 48" fill="none" xmlns="http://www.w3.org/2000/svg">
<rect opacity="0.1" width="48" height="48" rx="10" fill="#B764FB"/>
<path d="M29 32H28.8C27.1198 32 26.2798 32 25.638 31.673C25.0735 31.3854 24.6146 30.9265 24.327 30.362C24 29.7202 24 28.8802 24 27.2V20.8C24 19.1198 24 18.2798 24.327 17.638C24.6146 17.0735 25.0735 16.6146 25.638 16.327C26.2798 16 27.1198 16 28.8 16H29M29 32C29 33.1046 29.8954 34 31 34C32.1046 34 33 33.1046 33 32C33 30.8954 32.1046 30 31 30C29.8954 30 29 30.8954 29 32ZM29 16C29 17.1046 29.8954 18 31 18C32.1046 18 33 17.1046 33 16C33 14.8954 32.1046 14 31 14C29.8954 14 29 14.8954 29 16ZM19 24L29 24M19 24C19 25.1046 18.1046 26 17 26C15.8954 26 15 25.1046 15 24C15 22.8954 15.8954 22 17 22C18.1046 22 19 22.8954 19 24ZM29 24C29 25.1046 29.8954 26 31 26C32.1046 26 33 25.1046 33 24C33 22.8954 32.1046 22 31 22C29.8954 22 29 22.8954 29 24Z" stroke="#B764FB" stroke-width="1.5" stroke-linecap="round" stroke-linejoin="round"/>
</svg>
