<svg width="40" height="40" viewBox="0 0 40 40" fill="none" xmlns="http://www.w3.org/2000/svg">
<path d="M12.4997 7.50016C12.4997 5.19898 14.3652 3.3335 16.6663 3.3335C18.9675 3.3335 20.833 5.19898 20.833 7.50016V10.0002H22.4997C24.8294 10.0002 25.9942 10.0002 26.9131 10.3808C28.1382 10.8882 29.1116 11.8616 29.6191 13.0867C29.9997 14.0056 29.9997 15.1705 29.9997 17.5002H32.4997C34.8009 17.5002 36.6663 19.3656 36.6663 21.6668C36.6663 23.968 34.8009 25.8335 32.4997 25.8335H29.9997V28.6668C29.9997 31.4671 29.9997 32.8672 29.4547 33.9368C28.9753 34.8776 28.2104 35.6425 27.2696 36.1219C26.2001 36.6668 24.7999 36.6668 21.9997 36.6668H20.833V33.7502C20.833 31.6791 19.1541 30.0002 17.083 30.0002C15.0119 30.0002 13.333 31.6791 13.333 33.7502V36.6668H11.333C8.53275 36.6668 7.13261 36.6668 6.06306 36.1219C5.12225 35.6425 4.35734 34.8776 3.87798 33.9368C3.33301 32.8672 3.33301 31.4671 3.33301 28.6668V25.8335H5.83301C8.13419 25.8335 9.99967 23.968 9.99967 21.6668C9.99967 19.3656 8.13419 17.5002 5.83301 17.5002H3.33301C3.33301 15.1705 3.33301 14.0056 3.71361 13.0867C4.22108 11.8616 5.19445 10.8882 6.41959 10.3808C7.33845 10.0002 8.5033 10.0002 10.833 10.0002H12.4997V7.50016Z" stroke="#E12179" stroke-width="2" stroke-linecap="round" stroke-linejoin="round"/>
</svg>
