<svg width="40" height="40" viewBox="0 0 40 40" fill="none" xmlns="http://www.w3.org/2000/svg">
<path d="M22.5493 13.9199C21.5953 14.6001 20.4278 15.0002 19.1668 15.0002C15.9452 15.0002 13.3335 12.3885 13.3335 9.16683C13.3335 5.94517 15.9452 3.3335 19.1668 3.3335C21.2551 3.3335 23.0872 4.43086 24.1177 6.0804M10.0002 33.4788H14.3506C14.9179 33.4788 15.4816 33.5463 16.0315 33.6812L20.6283 34.7983C21.6257 35.0413 22.6648 35.0649 23.6726 34.8692L28.7551 33.8804C30.0977 33.6188 31.3328 32.9759 32.3007 32.0343L35.8966 28.5364C36.9236 27.5391 36.9236 25.9209 35.8966 24.9219C34.9721 24.0226 33.508 23.9213 32.4621 24.684L28.2712 27.7416C27.671 28.1803 26.9407 28.4165 26.1896 28.4165H22.1427L24.7186 28.4164C26.1705 28.4164 27.3466 27.2724 27.3466 25.86V25.3487C27.3466 24.176 26.5261 23.1534 25.357 22.8699L21.3812 21.9031C20.7341 21.7461 20.0715 21.6668 19.4054 21.6668C17.7974 21.6668 14.8867 22.9982 14.8867 22.9982L10.0002 25.0416M33.3335 10.8335C33.3335 14.0552 30.7218 16.6668 27.5002 16.6668C24.2785 16.6668 21.6668 14.0552 21.6668 10.8335C21.6668 7.61184 24.2785 5.00016 27.5002 5.00016C30.7218 5.00016 33.3335 7.61184 33.3335 10.8335ZM3.3335 24.3335L3.3335 34.0002C3.3335 34.9336 3.3335 35.4003 3.51515 35.7568C3.67494 36.0704 3.92991 36.3254 4.24351 36.4852C4.60003 36.6668 5.06674 36.6668 6.00016 36.6668H7.3335C8.26692 36.6668 8.73363 36.6668 9.09015 36.4852C9.40375 36.3254 9.65872 36.0704 9.81851 35.7568C10.0002 35.4003 10.0002 34.9336 10.0002 34.0002V24.3335C10.0002 23.4001 10.0002 22.9334 9.81851 22.5768C9.65872 22.2632 9.40375 22.0083 9.09015 21.8485C8.73363 21.6668 8.26692 21.6668 7.3335 21.6668L6.00016 21.6668C5.06674 21.6668 4.60003 21.6668 4.24351 21.8485C3.92991 22.0083 3.67494 22.2632 3.51515 22.5768C3.3335 22.9334 3.3335 23.4001 3.3335 24.3335Z" stroke="#E12179" stroke-width="2" stroke-linecap="round" stroke-linejoin="round"/>
</svg>
