<svg width="40" height="40" viewBox="0 0 40 40" fill="none" xmlns="http://www.w3.org/2000/svg">
<path d="M26.6668 11.6667C26.6668 10.1167 26.6668 9.34174 26.4965 8.7059C26.0341 6.98044 24.6864 5.63271 22.9609 5.17037C22.3251 5 21.5501 5 20.0002 5C18.4502 5 17.6752 5 17.0394 5.17037C15.3139 5.63271 13.9662 6.98044 13.5039 8.7059C13.3335 9.34174 13.3335 10.1167 13.3335 11.6667M8.66683 35H31.3335C33.2003 35 34.1338 35 34.8468 34.6367C35.474 34.3171 35.9839 33.8072 36.3035 33.18C36.6668 32.4669 36.6668 31.5335 36.6668 29.6667V17C36.6668 15.1332 36.6668 14.1997 36.3035 13.4867C35.9839 12.8595 35.474 12.3496 34.8468 12.03C34.1338 11.6667 33.2003 11.6667 31.3335 11.6667H8.66683C6.79999 11.6667 5.86657 11.6667 5.15353 12.03C4.52632 12.3496 4.01639 12.8595 3.69681 13.4867C3.3335 14.1997 3.3335 15.1332 3.3335 17V29.6667C3.3335 31.5335 3.3335 32.4669 3.69681 33.18C4.01639 33.8072 4.52632 34.3171 5.15353 34.6367C5.86657 35 6.79999 35 8.66683 35Z" stroke="#E12179" stroke-width="2" stroke-linecap="round" stroke-linejoin="round"/>
</svg>
