<svg width="40" height="40" viewBox="0 0 40 40" fill="none" xmlns="http://www.w3.org/2000/svg">
<path d="M13.3335 23.3335C13.3335 23.3335 15.8335 26.6668 20.0002 26.6668C24.1668 26.6668 26.6668 23.3335 26.6668 23.3335M25.0002 15.0002H25.0168M13.3335 15.0002H16.6668M36.6668 20.0002C36.6668 29.2049 29.2049 36.6668 20.0002 36.6668C10.7954 36.6668 3.3335 29.2049 3.3335 20.0002C3.3335 10.7954 10.7954 3.3335 20.0002 3.3335C29.2049 3.3335 36.6668 10.7954 36.6668 20.0002ZM25.8335 15.0002C25.8335 15.4604 25.4604 15.8335 25.0002 15.8335C24.5399 15.8335 24.1668 15.4604 24.1668 15.0002C24.1668 14.5399 24.5399 14.1668 25.0002 14.1668C25.4604 14.1668 25.8335 14.5399 25.8335 15.0002Z" stroke="#E12179" stroke-width="2" stroke-linecap="round" stroke-linejoin="round"/>
</svg>
