<svg width="40" height="40" viewBox="0 0 40 40" fill="none" xmlns="http://www.w3.org/2000/svg">
<path d="M15.0002 20.0002L18.3335 23.3335L25.8335 15.8335M29.8355 8.33101C30.1787 9.16105 30.8374 9.82083 31.6669 10.1653L34.5756 11.3701C35.4056 11.714 36.0651 12.3735 36.409 13.2036C36.7528 14.0337 36.7528 14.9664 36.409 15.7965L35.205 18.7032C34.861 19.5336 34.8606 20.4673 35.2061 21.2974L36.408 24.2032C36.5784 24.6143 36.6662 25.055 36.6662 25.5001C36.6663 25.9452 36.5787 26.3859 36.4084 26.7971C36.2381 27.2083 35.9884 27.5819 35.6736 27.8965C35.3589 28.2112 34.9852 28.4608 34.574 28.631L31.6674 29.8349C30.8374 30.1781 30.1777 30.8369 29.8332 31.6665L28.6284 34.5752C28.2846 35.4053 27.6251 36.0648 26.795 36.4087C25.9649 36.7525 25.0323 36.7525 24.2022 36.4087L21.2956 35.2047C20.4655 34.8617 19.5332 34.8624 18.7036 35.2066L15.795 36.4098C14.9654 36.7528 14.0335 36.7525 13.2041 36.4089C12.3747 36.0654 11.7156 35.4066 11.3715 34.5774L10.1664 31.6678C9.82317 30.8378 9.1644 30.178 8.33491 29.8335L5.42627 28.6287C4.59655 28.285 3.93726 27.6259 3.5933 26.7963C3.24934 25.9666 3.24888 25.0344 3.592 24.2044L4.79594 21.2977C5.13892 20.4676 5.13822 19.5352 4.79399 18.7056L3.59178 15.7948C3.42133 15.3837 3.33357 14.943 3.3335 14.4979C3.33342 14.0528 3.42105 13.6121 3.59137 13.2009C3.76168 12.7897 4.01135 12.4161 4.32611 12.1014C4.64086 11.7868 5.01454 11.5372 5.42577 11.367L8.33232 10.163C9.16161 9.82011 9.82097 9.16216 10.1657 8.33359L11.3705 5.42485C11.7143 4.59474 12.3738 3.93522 13.2039 3.59138C14.0339 3.24754 14.9666 3.24754 15.7967 3.59138L18.7032 4.79536C19.5333 5.13835 20.4657 5.13765 21.2953 4.79341L24.2051 3.59324C25.0351 3.2496 25.9676 3.24967 26.7975 3.59344C27.6274 3.93721 28.2868 4.59654 28.6307 5.42644L29.8358 8.33605L29.8355 8.33101Z" stroke="#E12179" stroke-width="2" stroke-linecap="round" stroke-linejoin="round"/>
</svg>
